<svg width="102" height="51" viewBox="0 0 102 51" fill="none" xmlns="http://www.w3.org/2000/svg">
<path fill-rule="evenodd" clip-rule="evenodd" d="M10.6028 1.44158C9.44234 2.04041 8.54712 2.74364 8.54712 3.05611C8.54712 3.36071 8.94933 4.48401 9.44091 5.55298C9.93249 6.62194 10.7369 8.37089 11.2285 9.43985C11.72 10.5088 12.1223 11.566 12.1223 11.7894C12.1223 12.3193 10.527 15.0982 9.0076 17.2154C7.71519 19.0162 6.0549 19.8474 4.52046 19.4624C3.73822 19.2661 3.47009 19.5096 2.12977 21.6321C0.459831 24.2763 0.515961 24.6013 2.70894 24.9774C6.4664 25.6223 8.08093 24.3739 11.069 18.5128L13.3028 14.1311L14.4246 16.4446C15.0417 17.717 16.0184 19.8438 16.5954 21.1713L17.644 23.5845H20.6035C22.8194 23.5845 23.5627 23.4658 23.5627 23.1115C23.5627 22.8516 23.085 21.6528 22.5012 20.4477C20.9793 17.3055 20.897 16.736 21.739 15.1647L22.4712 13.7986L24.8018 18.6916L27.1321 23.5845H29.995C31.5695 23.5845 32.858 23.4368 32.858 23.2566C32.858 22.8276 31.9628 20.7823 29.5034 15.593C28.3991 13.2624 27.4953 11.3043 27.4953 11.2414C27.4953 11.1781 26.6755 9.3848 25.6738 7.25581C24.672 5.12682 23.6088 2.7819 23.311 2.04435C23.0135 1.3068 22.6732 0.703674 22.5548 0.703674C22.0515 0.703674 17.845 3.05504 17.8439 3.33676C17.8432 3.50693 18.3827 4.7997 19.0426 6.20937C21.2921 11.0122 21.4594 12.0458 20.2546 13.6928C19.7416 14.3939 19.6886 14.2977 14.8483 3.83191C13.9617 1.91457 13.1061 0.354027 12.9474 0.363323C12.7887 0.372975 11.7336 0.85812 10.6028 1.44158ZM87.4723 1.0283C85.3455 1.80696 85.3219 1.83306 85.0781 3.65995C84.9079 4.93376 84.7352 5.19225 83.9823 5.29807C82.2366 5.54297 82.2541 6.78139 84.0034 6.78139H85.0548V13.1369C85.0548 20.9207 85.1206 21.0819 88.2996 21.0819H90.4311L90.1562 20.0987C90.005 19.5578 89.8813 16.3806 89.8813 13.0379C89.8813 7.00734 89.8873 6.95943 90.6857 6.84574C91.1283 6.78318 91.4901 6.50146 91.4901 6.22009C91.4901 5.93909 91.4886 5.59266 91.4872 5.45073C91.4854 5.30879 91.1236 5.18831 90.6828 5.18259C89.9431 5.1733 89.873 4.98596 89.7754 2.75937C89.7175 1.43193 89.5566 0.360105 89.4179 0.377265C89.2796 0.394426 88.404 0.687229 87.4723 1.0283ZM97.0261 0.99183C94.8789 1.89812 94.7077 2.07295 94.7077 3.3625C94.7077 4.48652 94.0727 5.44143 93.4045 5.32166C92.5905 5.17544 92.2051 5.41462 92.2051 6.06636C92.2051 6.61658 92.4436 6.78139 93.2394 6.78139C93.8732 6.78139 94.362 7.01127 94.5014 7.3745C94.6265 7.70091 94.7113 10.6854 94.6895 14.0067C94.6619 18.2379 94.7788 20.2006 95.0802 20.5639C95.3737 20.9174 96.2364 21.0819 97.7995 21.0819H100.089L99.5345 20.0104C99.0858 19.1427 98.9993 17.8028 99.0786 12.9653L99.1766 6.99161L100.07 6.78246C100.656 6.64553 101.006 6.28373 101.085 5.73316C101.181 5.06461 101.081 4.94127 100.593 5.12825C99.5076 5.54475 98.9978 4.68815 98.9978 2.44762C98.9978 1.29178 98.8773 0.3551 98.7297 0.366182C98.582 0.377265 97.8155 0.658628 97.0261 0.99183ZM35.4993 5.22192C34.3352 5.47826 32.971 7.16893 32.7003 8.69086L32.4558 10.0641L34.0621 8.959C36.0145 7.61547 38.5782 7.37629 38.5782 8.53749C38.5782 9.05302 37.9515 9.46667 36.028 10.2214C31.8158 11.8738 30.1974 14.2101 31.0804 17.3638C31.9907 20.615 35.0613 21.9882 37.7316 20.3376C38.3937 19.9286 38.9357 19.7416 38.9357 19.9228C38.9357 20.5099 40.7129 21.0819 42.5369 21.0819H44.3166L43.7714 20.0272C43.3488 19.2103 43.2258 17.6791 43.2258 13.2399V7.50786L42.1951 6.35416C41.2406 5.28591 40.9832 5.19546 38.7094 5.12825C37.3591 5.08857 35.9144 5.13075 35.4993 5.22192ZM44.6648 5.91085C44.8565 6.4153 45.0134 9.6776 45.0134 13.1605C45.0134 20.931 45.076 21.0819 48.2897 21.0819C50.227 21.0819 50.4208 21.0165 50.1491 20.4562C49.9821 20.112 49.7962 17.3906 49.7362 14.4082C49.6296 9.1281 49.6468 8.97902 50.3951 8.74163C50.8173 8.60756 51.34 8.67478 51.5563 8.89107C52.2305 9.56534 52.6721 9.32759 53.5287 7.82747C54.1532 6.73384 54.2598 6.25906 53.9609 5.89905C53.3385 5.14934 51.8491 4.92411 50.4859 5.37422C49.5728 5.6756 49.1316 5.67989 48.8417 5.38995C48.6239 5.17222 47.5164 4.99383 46.3809 4.99383H44.3163L44.6648 5.91085ZM54.9133 5.44072C55.0724 5.68669 55.283 9.1517 55.3813 13.1408C55.5271 19.0619 55.6587 20.4562 56.0963 20.7326C56.3913 20.9185 57.575 21.0733 58.7265 21.0765C60.5988 21.0812 60.7883 21.0158 60.5173 20.4562C60.3507 20.112 60.1648 17.4839 60.1044 14.6156C60.01 10.1431 60.0772 9.33153 60.577 8.91681C61.0357 8.53606 61.3042 8.52355 61.8408 8.85854C62.2155 9.09271 62.6688 9.28398 62.8479 9.28398C63.3195 9.28398 64.731 6.44354 64.4696 6.0206C64.0052 5.26947 62.474 4.98167 61.021 5.37279C59.9957 5.64915 59.4702 5.65058 59.197 5.37744C58.625 4.80542 54.5411 4.86584 54.9133 5.44072ZM65.0216 5.68526C65.2379 6.08996 65.3916 9.09807 65.3916 12.9349C65.3916 20.9578 65.4413 21.0819 68.6679 21.0819C70.6052 21.0819 70.799 21.0165 70.5269 20.4562C70.36 20.112 70.1419 16.6977 70.0418 12.8691L69.8605 5.90727L68.9668 5.45573C68.4752 5.20762 67.3033 5.00205 66.3623 4.99919C64.781 4.99418 64.6795 5.04602 65.0216 5.68526ZM75.2054 5.49685C72.7242 6.57725 71.1079 9.6136 71.1197 13.1709C71.1297 16.1486 71.9384 18.0069 73.9877 19.7612C75.3087 20.8917 75.7813 21.0819 77.2718 21.0819C79.3257 21.0819 80.6832 20.4555 81.9867 18.9064C83.3674 17.2654 83.9823 15.5394 83.9823 13.3038C83.9823 10.714 83.4103 8.90537 82.0814 7.29335C80.3049 5.1379 77.6322 4.43968 75.2054 5.49685ZM76.8556 8.18784C75.6287 9.41483 75.4563 16.1007 76.6043 17.9394C77.068 18.6819 78.0158 18.7767 78.5342 18.1324C78.9861 17.5704 79.6921 14.2759 79.6921 12.7275C79.6921 11.0247 78.7015 7.9619 78.0723 7.72058C77.7744 7.60617 77.2271 7.81639 76.8556 8.18784ZM36.3866 12.8505C35.4349 13.8026 35.3341 14.1133 35.431 15.8C35.534 17.5933 35.5908 17.6912 36.5943 17.8056C38.1034 17.9773 38.5782 17.1196 38.5782 14.2209C38.5782 11.3869 38.1302 11.1069 36.3866 12.8505ZM1.03936 27.1596C1.03936 27.3963 17.7899 27.5171 50.576 27.5171C83.5093 27.5171 100.039 27.3974 99.8916 27.1596C99.5856 26.6648 1.03936 26.6648 1.03936 27.1596ZM35.1818 29.3787C33.9816 29.7981 31.9349 31.2356 30.9728 32.3346C29.3157 34.228 28.7663 35.8454 28.7562 38.8603C28.7469 41.7118 28.7823 41.838 29.9157 42.9717C31.025 44.0814 31.2134 44.1393 33.5802 44.0993C34.9527 44.0757 36.0756 44.1315 36.0756 44.223C36.0756 44.3141 35.8296 45.2344 35.5293 46.2679C34.8493 48.6068 33.6256 49.8634 32.3414 49.541C31.3686 49.2968 31.0626 48.2529 31.9642 48.2529C32.262 48.2529 32.5005 47.935 32.5005 47.5378C32.5005 46.7413 31.7997 46.594 31.1419 47.2518C30.4594 47.9343 30.6432 49.236 31.5077 49.8413C32.5108 50.5442 32.9874 50.5399 34.5201 49.8123C36.0345 49.0937 36.7198 47.7745 38.023 43.0689C39.009 39.5088 39.685 38.2425 40.5999 38.2425C40.8645 38.2425 41.0808 38.0816 41.0808 37.885C41.0808 37.6783 39.9485 37.5275 38.3994 37.5275C36.8503 37.5275 35.7181 37.6783 35.7181 37.885C35.7181 38.0816 36.0302 38.2425 36.412 38.2425C37.4581 38.2425 37.6108 38.8045 37.1034 40.7851C36.712 42.3121 36.4571 42.6624 35.4213 43.095C33.647 43.8365 32.9295 43.7318 31.7579 42.5602C30.8159 41.6181 30.7129 41.2846 30.7129 39.177C30.7129 36.1267 31.7257 33.4325 33.5376 31.6632C36.2533 29.0112 39.7151 29.698 40.251 32.9949L40.4937 34.4886L41.1398 32.3435C41.9367 29.6983 41.937 29.6926 41.1702 29.8914C40.8259 29.9807 39.8406 29.8048 38.98 29.5006C37.1982 28.8703 36.6834 28.8535 35.1818 29.3787ZM48.2929 29.4009C47.6383 29.6104 46.333 30.4738 45.3917 31.32C41.7418 34.602 40.7318 40.7369 43.4253 43.267C44.7442 44.5061 47.8228 44.455 49.8742 43.1601C52.5834 41.4498 53.9609 39.3411 54.6191 35.8965C55.2511 32.5902 54.3541 30.4963 51.8591 29.4538C50.4755 28.8757 49.9578 28.8682 48.2929 29.4009ZM57.2582 30.1599C57.9529 30.6872 58.058 31.7072 57.5464 32.9524C57.3605 33.4039 56.8553 34.9802 56.4231 36.4549C54.6427 42.533 54.4299 43.0664 53.7371 43.193C53.3635 43.2613 52.9005 43.4665 52.7085 43.6492C52.4933 43.854 54.6155 43.9434 58.25 43.8826L64.1403 43.784L64.5383 42.1751C64.9001 40.7115 64.8068 39.5696 64.4146 40.6689C64.3245 40.9221 63.8497 41.6056 63.3592 42.1884C62.5097 43.198 62.3356 43.2477 59.6396 43.2477C57.4913 43.2477 56.8113 43.1308 56.8113 42.7607C56.8113 42.3753 58.9278 34.538 59.8985 31.3289C60.0079 30.9671 60.6045 30.4509 61.2248 30.1809C62.3034 29.7115 62.2273 29.6901 59.4927 29.6876C57.0391 29.6854 56.7216 29.7523 57.2582 30.1599ZM70.0897 30.2038L71.0339 30.7169L70.207 33.4965C67.3555 43.0804 67.3637 43.0582 66.6383 43.189C66.2475 43.2595 65.7753 43.4622 65.5883 43.6399C65.3848 43.8333 66.3877 43.9581 68.0909 43.9513C70.5312 43.9416 70.8448 43.873 70.3074 43.465C69.4973 42.8501 69.5188 42.0997 70.4301 39.1963C71.1565 36.8822 71.2134 36.8125 72.371 36.8125C73.7564 36.8125 74.8182 37.7019 74.5694 38.6536C74.4739 39.0179 74.5314 39.2325 74.697 39.1302C75.0105 38.9364 76.117 35.4335 76.117 34.6348C76.117 34.3806 75.6694 34.6048 75.1142 35.1368C73.8865 36.313 71.242 36.5636 71.5791 35.4718C71.6857 35.1275 72.0803 33.8004 72.4564 32.5223L73.14 30.1985L75.0145 30.0894C76.7673 29.9875 76.9686 30.0648 78.1119 31.2767C79.4169 32.6607 79.5645 32.5738 78.9421 30.788L78.5495 29.6622L73.8475 29.6765C69.5581 29.6897 69.2285 29.7358 70.0897 30.2038ZM48.3805 30.3493C46.3491 31.2167 44.2676 35.1443 44.0353 38.5489C43.8419 41.379 44.3034 42.7736 45.5947 43.2648C47.7913 44.1 50.4365 41.996 51.8133 38.3183C52.6288 36.1407 52.7775 31.9367 52.0732 30.9736C51.5455 30.2521 49.4416 29.8964 48.3805 30.3493Z" fill="#8E8EA8"/>
</svg>
