<svg width="178" height="51" viewBox="0 0 178 51" fill="none" xmlns="http://www.w3.org/2000/svg">
<path d="M92.7341 13.2936C92.7406 14.0426 92.5138 14.7752 92.0851 15.3895H93.4475V4.84131H89.0823V9.15006C91.4402 9.87961 92.7341 11.3951 92.7341 13.2936Z" fill="#8E8EA8"/>
<path d="M85.1806 8.77118C86.1681 8.77118 87.0871 9.00093 87.7844 9.19037C86.2971 8.92838 83.9956 9.30726 82.8066 10.2464V15.3895H87.1798V9.53297C88.123 9.70629 88.8364 10.0892 89.2758 10.3875V15.3855H90.223C89.7122 15.9161 89.0839 16.3192 88.3886 16.5622C87.6933 16.8052 86.9506 16.8812 86.2205 16.7841V16.9937C90.3721 17.3242 92.1335 15.3532 92.1335 13.1364C92.1335 10.5285 89.6869 9.00093 87.1798 8.69057V4.84131H82.8106V8.73491C79.9852 9.30323 77.2161 10.984 77.2161 13.7692C77.2161 18.0497 83.2016 20.7059 88.4132 20.7059C96.3294 20.7059 102.424 16.8808 102.424 11.508C102.424 5.00254 93.6248 0.363281 86.7163 0.363281C78.8001 0.363281 72.9678 5.39351 72.9678 10.7663C72.9678 13.5475 74.5317 15.8812 76.4987 17.5015L76.6478 17.4048C75.0879 16.111 73.6812 14.0876 73.6812 11.3145C74.0964 5.43785 81.3394 2.12467 87.7885 2.12467C92.3471 2.12467 100.541 3.17666 100.541 10.8026C100.541 14.7809 96.2891 19.9562 87.3612 19.9562C82.7905 19.9562 79.2395 17.5056 79.2395 13.9909C79.2435 10.9397 81.6337 8.77118 85.1806 8.77118ZM68.2439 35.7966V35.2121H69.7715V30.0328H65.6885V35.2121H67.2484V35.7966H61.6538V35.2121H63.0807V24.6519H61.6538V24.0715H67.2484V24.6519H65.6885V29.3355H69.7715V24.6519H68.2439V24.0715H73.8062V24.6519H72.3592V35.2121H73.8062V35.7966H68.2439ZM76.0674 24.0715H78.6067V25.4661H76.0674V24.0715ZM74.8179 35.7966V35.2323H76.1802V27.9409H74.8179V27.3605H78.7034V35.2323H79.9972V35.7966H74.8179ZM80.5494 35.7966V35.2121H81.9602V23.1122H80.5494V22.56H84.4995V35.2121H85.8296V35.7966H80.5494ZM89.7957 35.7966C88.6309 35.7966 87.6716 35.2645 87.6716 33.9868V27.9247H86.2931V27.3605H87.6716V24.1077H90.0416V27.3605H92.0005V27.9247H90.0416V35.2323H92.0367V35.7966H89.7957ZM97.1153 27.691C99.2919 27.691 99.0944 29.8998 99.1105 31.4274V31.9594C99.1266 33.4024 99.0944 35.5426 97.1355 35.5426C96.7969 35.5594 96.4603 35.4815 96.1635 35.3178C95.8666 35.1541 95.6212 34.9109 95.4547 34.6156C95.0758 33.9385 95.1081 32.2577 95.1081 31.508C95.1081 30.0166 95.0436 27.691 97.1153 27.691ZM101.851 31.7619C101.851 29.0171 99.828 27.1428 97.1355 27.1428C94.5599 27.1428 92.3028 28.8357 92.3028 31.5443C92.3028 34.3455 94.5277 36.0263 97.2 36.0263C99.7433 36.0304 101.851 34.3818 101.851 31.7619ZM108.707 35.7966V35.2323H109.836V30.1013C109.836 29.1702 109.836 28.0255 108.607 28.0255C107.643 28.0255 106.728 28.9727 106.499 29.8514C106.398 30.2706 106.414 30.718 106.414 31.1291V35.2323H107.708V35.7966H102.524V35.2323H103.887V27.9409H102.524V27.3605H106.414V28.6583C106.926 28.0457 107.277 27.7111 108.022 27.4129C108.507 27.2071 109.027 27.0989 109.554 27.0944C109.933 27.0944 110.332 27.163 110.699 27.2637C112.073 27.6587 112.404 28.5576 112.404 29.8514V35.2323H113.734V35.7966H108.707ZM10.0779 45.1799V48.219C8.78402 49.7305 7.47407 50.3593 5.44666 50.3593C1.90776 50.3593 0.118164 47.7393 0.118164 44.4342C0.118164 42.4955 0.630054 40.7825 2.12542 39.4685C3.17338 38.5414 4.51962 38.1263 5.89406 38.1263C6.84126 38.1263 7.58693 38.4084 8.38499 38.876L9.14678 38.3117H9.56194V41.5967H8.86867C8.55025 39.7667 8.17137 38.7228 6.06335 38.7228C4.74936 38.7228 3.77395 39.271 3.40716 40.5648C3.07262 41.6773 3.02425 42.9429 3.02425 44.1037C3.02425 45.2121 3.07262 46.3609 3.25803 47.4733C3.45553 48.8357 4.05609 49.8474 5.5837 49.8474C6.23263 49.8474 6.66391 49.7627 7.11131 49.2629C7.39346 48.9324 7.49422 48.7148 7.49422 48.2835V45.1759H5.73284V44.4987H11.1782V45.1799H10.0779ZM18.3326 44.4503C17.6514 44.4503 17.0549 43.9828 17.0549 43.2694C17.0549 42.7373 17.4015 42.4552 17.4015 42.3262C17.4015 42.1932 17.2363 42.1247 17.1194 42.1247C16.8533 42.1247 16.3374 42.7696 16.2044 42.955C15.6079 43.7168 15.3902 44.7647 15.3902 45.7281V49.5289H17.067V50.1134H11.4886V49.5289H12.8509V42.2577H11.4886V41.6773H15.4064V43.2049C16.0392 42.2053 16.6196 41.4113 17.9174 41.4113C18.913 41.4113 19.6788 42.0602 19.6788 43.088C19.6788 43.9022 19.1468 44.4503 18.3326 44.4503ZM25.3378 45.6636V47.2073C25.3378 47.82 25.2693 48.352 24.7735 48.7672C24.5265 48.9742 24.217 49.092 23.8949 49.1017C23.0122 49.1017 22.5164 48.4528 22.5164 47.6225C22.5164 45.9457 24.0118 45.7482 25.3378 45.6636ZM29.0742 50.1134V49.5491H27.732V44.0352C27.732 42.9227 27.466 42.2899 26.3858 41.8264C25.7472 41.5738 25.0652 41.4492 24.3785 41.4596C23.0807 41.4596 20.8396 42.0078 20.8396 43.6523C20.8396 44.2972 21.3233 44.7647 21.9682 44.7647C22.1184 44.7691 22.2678 44.743 22.4076 44.6881C22.5474 44.6331 22.6747 44.5504 22.7816 44.4449C22.8886 44.3395 22.9731 44.2134 23.03 44.0744C23.087 43.9354 23.1152 43.7864 23.1129 43.6362C23.1129 43.1726 22.7139 42.8744 22.7139 42.556C22.7139 42.1085 23.6288 41.9755 23.9271 41.9755C25.1041 41.9755 25.3378 42.4391 25.3378 43.5031V45.0993C24.0279 45.2323 22.3995 45.3814 21.3032 46.1916C20.626 46.6914 20.1383 47.4209 20.1383 48.2996C20.1383 49.6942 21.2185 50.327 22.5124 50.327C23.6933 50.327 24.6365 49.8111 25.4023 48.9324C25.487 49.1339 25.5716 49.3314 25.6845 49.4967C26.1157 50.0771 27.0791 50.1094 27.728 50.1094H29.0742V50.1134ZM35.6683 50.1134V49.5491H36.7969V44.4181C36.7969 43.4911 36.7969 42.3423 35.5676 42.3423C34.6043 42.3423 33.6893 43.2855 33.4596 44.1682C33.3588 44.5834 33.3749 45.0308 33.3749 45.4459V49.5491H34.6687V50.1134H29.4894V49.5491H30.8517V42.2617H29.4894V41.6773H33.3749V42.9711C33.8908 42.3584 34.2375 42.0239 34.9831 41.7256C35.4668 41.5241 35.9989 41.4072 36.5107 41.4072C36.8937 41.4072 37.2927 41.4717 37.6595 41.5765C39.038 41.9755 39.3685 42.8703 39.3685 44.1682V49.5451H40.6986V50.1094H35.6683V50.1134ZM45.4789 42.1408C46.2125 42.1408 46.8574 42.7373 47.1758 43.354C47.5386 44.0674 47.5386 45.1799 47.5386 45.978C47.5386 46.5785 47.5224 47.5741 47.2887 48.1545C46.9904 48.8679 46.277 49.6982 45.4467 49.6982C43.786 49.6982 43.7014 47.0783 43.7014 45.9014C43.7014 44.6841 43.7538 42.1408 45.4789 42.1408ZM51.3394 50.1134V49.5491H50.0093V36.8647H46.1238V37.429H47.4499V42.7736C46.7526 41.9272 46.0069 41.4636 44.8743 41.4636C44.3133 41.4752 43.7626 41.6174 43.2661 41.8788C41.7224 42.693 41.0251 44.3214 41.0251 46.0142C41.0251 48.4044 42.5003 50.3633 44.9751 50.3633C46.2367 50.3633 46.7848 49.8312 47.4459 48.8518V50.1134H51.3394ZM64.5922 38.9687L60.8235 50.327H60.2068L55.7409 38.9687H54.6284V38.3883H59.8763V38.9687H58.5986L61.3878 46.3931L63.8102 38.9687H62.2342V38.3883H65.8658V38.9687H64.5922ZM69.3725 45.6636V47.2073C69.3725 47.82 69.308 48.352 68.8082 48.7672C68.5612 48.9742 68.2517 49.092 67.9295 49.1017C67.0508 49.1017 66.5511 48.4528 66.5511 47.6225C66.5511 45.9457 68.0464 45.7482 69.3725 45.6636ZM73.1089 50.1134V49.5491H71.7627V44.0352C71.7627 42.9227 71.4966 42.2899 70.4205 41.8264C69.7805 41.5738 69.0971 41.4492 68.4092 41.4596C67.1153 41.4596 64.8743 42.0078 64.8743 43.6523C64.8743 44.2972 65.354 44.7647 66.0029 44.7647C66.6518 44.7647 67.1516 44.2851 67.1516 43.6362C67.1516 43.1726 66.7526 42.8744 66.7526 42.556C66.7526 42.1085 67.6675 41.9755 67.9658 41.9755C69.1468 41.9755 69.3765 42.4391 69.3765 43.5031V45.0993C68.0625 45.2323 66.4382 45.3814 65.3419 46.1916C64.994 46.4246 64.7071 46.7376 64.5051 47.1044C64.3031 47.4712 64.192 47.881 64.181 48.2996C64.181 49.6942 65.2613 50.327 66.5551 50.327C67.732 50.327 68.6792 49.8111 69.445 48.9324C69.5297 49.1339 69.6103 49.3314 69.7272 49.4967C70.1585 50.0771 71.1218 50.1094 71.7707 50.1094H73.1089V50.1134ZM77.9577 50.3472C75.4023 50.3472 73.4434 48.7349 73.4434 46.0948C73.4434 43.3701 75.4184 41.4636 78.1069 41.4636C79.4854 41.4636 81.412 42.1287 81.412 43.7732C81.412 44.5672 80.8316 45.067 80.0658 45.067C79.8961 45.0735 79.7268 45.0457 79.5681 44.9852C79.4094 44.9248 79.2646 44.8329 79.1423 44.7151C79.0199 44.5973 78.9227 44.456 78.8563 44.2997C78.7898 44.1434 78.7557 43.9753 78.7558 43.8054C78.7558 43.1888 79.1387 42.7938 79.57 42.4108C79.2002 42.1243 78.7439 41.9722 78.2762 41.9796C77.4418 41.9796 76.9823 42.3302 76.5954 43.0598C76.3132 43.6079 76.2608 45.3492 76.2608 45.9336C76.2608 46.4495 76.2931 46.9614 76.3455 47.4612C76.4422 48.6744 76.9259 49.7345 78.3407 49.7345C79.7514 49.7345 80.5454 48.7389 81.2105 47.6265L81.7425 47.9248C80.88 49.4967 79.832 50.3472 77.9577 50.3472ZM87.4902 45.6636V47.2073C87.4902 47.82 87.4217 48.352 86.9259 48.7672C86.6789 48.9742 86.3694 49.092 86.0472 49.1017C85.1645 49.1017 84.6687 48.4528 84.6687 47.6225C84.6687 45.9457 86.1601 45.7482 87.4902 45.6636ZM91.2266 50.1134V49.5491H89.8804V44.0352C89.8804 42.9227 89.6143 42.2899 88.5382 41.8264C87.8983 41.5734 87.2149 41.4487 86.5269 41.4596C85.233 41.4596 82.992 42.0078 82.992 43.6523C82.992 44.2972 83.4757 44.7647 84.1206 44.7647C84.7655 44.7647 85.2693 44.2851 85.2693 43.6362C85.2693 43.1726 84.8662 42.8744 84.8662 42.556C84.8662 42.1085 85.7812 41.9755 86.0795 41.9755C87.2604 41.9755 87.4942 42.4391 87.4942 43.5031V45.0993C86.1802 45.2323 84.5559 45.3814 83.4596 46.1916C82.7784 46.6914 82.2947 47.4209 82.2947 48.2996C82.2947 49.6942 83.3749 50.327 84.6687 50.327C85.8457 50.327 86.7929 49.8111 87.5547 48.9324C87.6393 49.1339 87.7199 49.3314 87.8368 49.4967C88.2681 50.0771 89.2314 50.1094 89.8763 50.1094H91.2266V50.1134ZM94.9952 50.1134C93.8304 50.1134 92.8711 49.5813 92.8711 48.3036V42.2416H91.4926V41.6773H92.8711V38.4245H95.2451V41.6773H97.2V42.2416H95.2451V49.5451H97.2363V50.1094H94.9952V50.1134ZM99.0783 38.3883H101.618V39.7869H99.0783V38.3883ZM97.8328 50.1134V49.5491H99.1951V42.2617H97.8328V41.6773H101.718V49.5491H103.012V50.1134H97.8328ZM108.574 42.0078C110.751 42.0078 110.553 44.2166 110.57 45.7482V46.2762C110.582 47.7192 110.553 49.8635 108.591 49.8635C108.252 49.88 107.916 49.8016 107.619 49.6371C107.323 49.4725 107.079 49.2285 106.914 48.9324C106.531 48.2512 106.567 46.5785 106.567 45.8288C106.567 44.3335 106.503 42.0078 108.574 42.0078ZM113.306 46.0787C113.306 43.3379 111.283 41.4596 108.591 41.4596C106.019 41.4596 103.758 43.1525 103.758 45.8651C103.758 48.6664 105.987 50.3472 108.659 50.3472C111.198 50.3472 113.306 48.6986 113.306 46.0787ZM119.917 50.1134V49.5491H121.045V44.4181C121.045 43.4911 121.045 42.3423 119.816 42.3423C118.857 42.3423 117.938 43.2855 117.708 44.1682C117.607 44.5834 117.623 45.0308 117.623 45.4459V49.5491H118.917V50.1134H113.738V49.5491H115.1V42.2617H113.738V41.6773H117.623V42.9711C118.139 42.3584 118.486 42.0239 119.231 41.7256C119.715 41.5241 120.247 41.4072 120.759 41.4072C121.142 41.4072 121.541 41.4717 121.904 41.5765C123.282 41.9755 123.617 42.8703 123.617 44.1682V49.5451H124.947V50.1094H119.917V50.1134ZM129.082 50.327C128.459 50.3235 127.848 50.1567 127.309 49.8433C127.172 49.7587 126.845 49.5451 126.676 49.5451C126.345 49.5451 126.345 49.8917 126.345 50.1295H125.761V47.038H126.345C126.495 47.8361 126.644 48.4649 127.273 49.0493C127.785 49.5217 128.454 49.7886 129.151 49.799C129.88 49.799 130.86 49.3677 130.86 48.5052C130.86 46.4939 125.862 47.8079 125.862 44.1521C125.862 42.5439 126.922 41.4475 128.566 41.4475C129.115 41.4475 129.663 41.5644 130.142 41.8304C130.312 41.9151 130.424 41.9796 130.61 41.9796C131.025 41.9796 131.009 41.6652 131.041 41.3306H131.605V43.9223H131.041C130.876 43.2936 130.727 42.8945 130.199 42.4955C129.762 42.1846 129.24 42.0157 128.703 42.0118C128.022 42.0118 127.277 42.4431 127.277 43.1928C127.277 43.5072 127.426 43.8095 127.659 44.0231C127.877 44.2206 128.772 44.4866 129.07 44.5551C130.598 44.9703 132.194 45.3331 132.194 47.296C132.19 49.0815 130.86 50.327 129.082 50.327ZM145.152 50.1134L144.858 49.3798C144.06 50.1134 143.145 50.3593 142.065 50.3593C138.409 50.3593 136.386 47.7877 136.386 44.2972C136.386 40.8591 138.675 38.1384 142.23 38.1384C143.242 38.1384 144.056 38.4044 144.854 39.0171L145.084 38.3842H145.765L145.785 41.6732H145.068C144.753 40.065 144.274 38.6341 142.311 38.6341C140.719 38.6341 139.937 39.5168 139.606 40.9759C139.37 42.1783 139.265 43.4027 139.292 44.6277C139.292 46.5705 139.405 49.7909 142.065 49.7909C142.538 49.817 143.01 49.7314 143.443 49.541C144.673 48.9284 144.79 47.8804 145.136 46.7156H145.85V50.1053H145.152V50.1134ZM147.18 50.1134V49.5289H148.591V37.4249H147.18V36.8808H151.134V49.5289H152.46V50.1134H147.18ZM159.747 50.1134V48.7994C158.752 49.8474 158.022 50.327 156.527 50.327C154.387 50.327 154.052 49.279 154.052 47.437V42.2375H152.738V41.6732H156.607V47.8844C156.607 48.6341 156.74 49.408 157.672 49.408C157.972 49.3955 158.263 49.3052 158.518 49.146C159.55 48.5293 159.747 47.566 159.747 46.4576V42.2416H158.304V41.6773H162.307V49.5491H163.637V50.1134H159.747ZM172.138 45.6958C172.138 46.244 172.137 46.7881 172.105 47.3202C172.037 48.4004 171.823 49.6942 170.477 49.6942C169.659 49.6942 168.917 49.1823 168.482 48.5011C168.018 47.7877 167.869 46.772 167.869 45.9256C167.869 45.1275 168.018 44.1642 168.401 43.4669C168.784 42.7534 169.63 42.0723 170.477 42.0723C171.456 42.0723 171.855 42.7696 172.005 43.6362C172.121 44.2972 172.138 45.0187 172.138 45.6958ZM174.927 46.0102C174.927 44.2488 174.246 42.6204 172.585 41.8425C172.05 41.5905 171.467 41.4598 170.876 41.4596C169.566 41.4596 168.816 41.9917 167.97 42.9227V36.8647H164.048V37.4451H165.463V49.5491H164.048V50.1134H167.954V48.8518C168.732 49.8151 169.651 50.331 170.908 50.331C171.498 50.3556 172.085 50.235 172.618 49.9799C173.151 49.7248 173.613 49.343 173.963 48.8679C174.6 48.0524 174.939 47.0445 174.927 46.0102ZM99.832 19.1863H99.4168V19.0332H100.445V19.1863H100.029V20.6817H99.832V19.1863ZM101.609 20.3834H101.618L102.125 19.0372H102.383V20.6857H102.186V19.4403H102.178L101.694 20.6817H101.513L101.013 19.4403H101.005V20.6817H100.807V19.0332H101.086L101.609 20.3834ZM175.817 42.8865C175.661 42.8921 175.505 42.8654 175.36 42.808C175.214 42.7506 175.082 42.6638 174.971 42.5529C174.861 42.442 174.774 42.3095 174.717 42.1637C174.66 42.0179 174.634 41.8619 174.641 41.7055C174.635 41.5501 174.662 41.3953 174.72 41.2509C174.777 41.1064 174.864 40.9754 174.975 40.866C175.085 40.7566 175.217 40.6713 175.362 40.6153C175.507 40.5593 175.662 40.5339 175.817 40.5406C175.972 40.5345 176.127 40.5603 176.272 40.6165C176.416 40.6728 176.548 40.7582 176.658 40.8675C176.768 40.9769 176.854 41.1077 176.911 41.2519C176.969 41.396 176.995 41.5504 176.99 41.7055C176.997 41.8615 176.971 42.0172 176.914 42.1627C176.857 42.3083 176.771 42.4406 176.661 42.5514C176.551 42.6622 176.419 42.7491 176.274 42.8068C176.129 42.8644 175.974 42.8916 175.817 42.8865ZM175.817 43.1081C176.189 43.1065 176.545 42.9574 176.806 42.6936C177.068 42.4298 177.214 42.0729 177.212 41.7015C177.21 41.33 177.061 40.9744 176.798 40.7128C176.534 40.4513 176.177 40.3053 175.805 40.3069C175.434 40.3085 175.078 40.4576 174.817 40.7214C174.555 40.9852 174.409 41.3421 174.411 41.7135C174.412 42.085 174.561 42.4406 174.825 42.7022C175.089 42.9637 175.446 43.1097 175.817 43.1081ZM175.499 41.7901H175.842L176.289 42.4995H176.523L176.043 41.7901C176.321 41.77 176.539 41.6491 176.539 41.3468C176.539 41.0606 176.394 40.9034 175.979 40.9034H175.293V42.4995H175.499V41.7901ZM175.499 41.6007V41.0848H175.934C176.128 41.0848 176.317 41.117 176.317 41.3347C176.317 41.637 176.003 41.5967 175.781 41.5967H175.499V41.6007Z" fill="#8E8EA8"/>
</svg>
