<svg width="69" height="51" viewBox="0 0 69 51" fill="none" xmlns="http://www.w3.org/2000/svg">
<path fill-rule="evenodd" clip-rule="evenodd" d="M2.8804 0.615794C1.69784 1.03781 1.20564 1.468 0.725431 2.49918C-0.0786622 4.22623 0.183604 5.82034 1.45517 6.93691C2.43841 7.79996 3.2813 8.01753 5.21584 7.90722C6.12834 7.85511 6.97066 7.75355 7.08763 7.68109C7.21562 7.60197 7.30044 6.94794 7.30044 6.03943V4.52919L6.49216 4.52881L5.68388 4.52843V5.79809C5.68388 7.01773 5.66372 7.07308 5.16811 7.2064C4.46557 7.39544 3.36194 7.11986 2.83361 6.62367C2.15009 5.98143 1.86463 4.68248 2.12955 3.41928C2.59759 1.18825 4.56789 0.325765 6.28258 1.60132L6.88146 2.04673L7.00166 1.56747C7.16464 0.918185 7.06252 0.806548 6.07832 0.558739C4.96784 0.27917 3.76361 0.300661 2.8804 0.615794ZM11.9599 0.597346C10.8964 1.01347 10.5467 1.30121 10.0284 2.18537C9.12695 3.72357 9.36392 5.823 10.5657 6.94489C12.1834 8.45552 15.4226 8.23681 16.725 6.52934C17.4075 5.63434 17.7101 4.03395 17.3952 2.98281C17.0842 1.94498 15.983 0.830701 14.9985 0.557218C14.0401 0.291152 12.6971 0.309029 11.9599 0.597346ZM26.0051 0.636524C25.9635 0.744548 25.9528 2.4037 25.9815 4.3236L26.0335 7.81422L26.8419 7.8359L27.6504 7.85739L27.6502 6.0982L27.65 4.33901H28.7911C29.8025 4.33901 29.9322 4.29602 29.9322 3.96149C29.9322 3.61384 29.8426 3.59349 28.7911 3.70341L27.65 3.82266V2.44212V1.06158L28.8862 1.14032C30.0307 1.21316 30.1224 1.19015 30.1226 0.82956C30.1228 0.461746 30.0115 0.440255 28.1017 0.440255C26.8881 0.440255 26.0506 0.518611 26.0051 0.636524ZM57.108 0.618837C56.3956 1.02183 55.9873 1.74187 55.9873 2.59503C55.9873 3.54119 56.5059 4.20987 57.7143 4.82226C58.8583 5.40194 59.3377 6.04666 59.0393 6.60409C58.5443 7.52914 57.2396 7.56204 56.5867 6.6657L56.2239 6.16743L56.0864 6.79351C55.8924 7.67596 56.1683 7.85739 57.7048 7.85739C58.9247 7.85739 59.0667 7.81346 59.6112 7.26915C60.8558 6.0246 60.5056 4.32721 58.8292 3.47767C57.1381 2.6207 56.7914 1.87709 57.7649 1.19509C58.3153 0.809591 58.5319 0.840971 59.1993 1.40258L59.778 1.88945L59.9037 1.3887C59.9745 1.10685 59.9385 0.797039 59.8217 0.680266C59.484 0.342501 57.6693 0.301422 57.108 0.618837ZM19.8525 4.19637L19.8527 7.85739L21.8494 7.85967C23.7393 7.86177 23.8464 7.84084 23.8464 7.47018C23.8464 7.10674 23.7572 7.0843 22.6014 7.1579L21.3567 7.2372L21.4128 3.88599L21.4691 0.534967L20.6608 0.535157L19.8525 0.535347V4.19637ZM32.6994 1.15344C32.5647 1.96305 31.834 7.41617 31.834 7.61148C31.834 7.6944 32.0358 7.7623 32.2825 7.7623C32.7188 7.7623 32.7344 7.70505 32.8656 5.63168C32.9398 4.45977 33.0503 3.42042 33.1111 3.32191C33.1722 3.22339 33.7245 4.18211 34.3388 5.45253C35.0196 6.86026 35.5656 7.7623 35.737 7.7623C35.8916 7.7623 36.0181 7.67691 36.0181 7.5725C36.0181 7.28171 37.9876 3.19791 38.1278 3.19791C38.1957 3.19791 38.305 3.7114 38.3708 4.33901C38.4366 4.96661 38.5433 5.9858 38.6082 6.60389L38.7259 7.72769L39.5682 7.79463C40.3487 7.85663 40.4031 7.83153 40.3082 7.45344C40.1922 6.99111 39.4414 1.23997 39.4414 0.813395C39.4414 0.651739 39.2622 0.535537 39.0135 0.535917C38.6548 0.536297 38.3857 0.937964 37.3516 3.01495C36.415 4.89662 36.0715 5.42971 35.9253 5.22868C35.8195 5.08319 35.2621 3.97195 34.6868 2.75954C33.826 0.945191 33.5666 0.553224 33.2214 0.545046C32.8934 0.537439 32.7798 0.669806 32.6994 1.15344ZM42.6745 4.26426C42.6745 7.58638 42.7074 7.98063 42.9753 7.87774C43.1408 7.81422 43.5044 7.7623 43.7836 7.7623L44.291 7.76211V4.14863V0.535347H43.4827H42.6745V4.26426ZM47.1438 4.1357V7.73605L47.5844 7.82031L48.0251 7.90456L47.9806 5.50369C47.9555 4.15757 48.0125 3.08988 48.1105 3.07334C48.2744 3.04576 50.1814 5.06684 51.8358 7.02154C52.4309 7.72464 52.6693 7.87964 53.0459 7.80756L53.5149 7.71799V4.12657V0.535347H53.087C52.6614 0.535157 52.6595 0.548469 52.7268 3.05527L52.7947 5.5752L52.373 5.19483C52.141 4.98563 51.0922 3.85176 50.042 2.67491C48.5359 0.987412 48.0279 0.535347 47.6381 0.535347H47.1438V4.1357ZM62.5486 4.13361V7.73168L63.3502 7.79539L64.1516 7.8591L64.206 6.24293L64.2602 4.62675L65.1956 6.14708C65.71 6.98312 66.1531 7.69669 66.1805 7.73282C66.245 7.8184 68.1596 7.87717 68.1592 7.79368C68.159 7.7585 67.5599 6.83402 66.8277 5.73894C66.0955 4.64406 65.4964 3.65606 65.4964 3.54366C65.4964 3.43126 66.0723 2.72968 66.776 1.98492L68.0557 0.630438L67.414 0.568819C67.027 0.531543 66.7119 0.607045 66.6198 0.759002C66.5358 0.897455 65.9706 1.63327 65.3637 2.39381L64.2602 3.77702L64.2053 2.15609L64.1503 0.535347H63.3494H62.5486V4.13361ZM12.6052 1.19376C11.6737 1.71258 11.2515 2.7641 11.2652 4.53128C11.2779 6.16933 12.1488 7.22979 13.4814 7.22979C14.7497 7.22979 15.457 6.41124 15.7554 4.59823C16.1293 2.3263 14.2393 0.283925 12.6052 1.19376ZM15.4772 15.9162C13.9603 16.4139 12.4839 17.8171 12.0885 19.1366C10.8302 23.336 14.5592 27.0876 18.6171 25.7049C20.0294 25.2236 21.4466 23.7464 21.8549 22.3299C22.5554 19.9002 21.4814 17.4434 19.2124 16.2848C18.3605 15.8496 16.2995 15.6465 15.4772 15.9162ZM15.8575 16.4982C13.705 17.153 12.2513 19.2081 12.4936 21.2535C12.7792 23.6654 14.5344 25.2591 16.9047 25.2591C20.979 25.2591 22.9211 20.4399 19.9729 17.6461C18.8599 16.5917 17.1335 16.11 15.8575 16.4982ZM59.9811 28.7935C52.3968 29.9793 50.3809 30.2889 36.5886 32.3872C32.7707 32.968 28.5928 33.6099 27.3043 33.8138L24.9616 34.1844L17.1295 33.1363C12.8218 32.5599 7.68537 31.8807 5.71545 31.6272C3.74535 31.3735 1.84104 31.1113 1.48388 31.0441C0.932919 30.9408 0.834217 30.9762 0.834217 31.2773C0.834217 31.6639 -0.492309 31.457 16.6194 33.74C20.1235 34.2074 24.8733 34.8411 27.1746 35.1483C42.2106 37.1543 46.2588 37.6925 51.518 38.3842C62.0024 39.7634 65.7524 40.2859 65.8471 40.3808C65.8983 40.4319 65.8618 40.474 65.7659 40.4742C65.6701 40.4745 62.425 40.7758 58.5547 41.144C54.6845 41.5122 48.3942 42.1084 44.5763 42.4688C40.7584 42.8292 35.3239 43.3442 32.4997 43.6131C29.6755 43.8822 23.8131 44.44 19.4721 44.8529C15.1312 45.2656 9.16195 45.8371 6.20689 46.1228L0.834217 46.642V48.5027C0.834217 50.3408 0.839732 50.3633 1.29161 50.3633C1.54303 50.3633 5.37293 50.0191 9.80229 49.5984C14.2317 49.1775 20.9793 48.5381 24.7973 48.1773C28.6152 47.8165 34.0069 47.304 36.7788 47.0381C39.5507 46.7724 44.9424 46.2569 48.7603 45.8923C52.5783 45.5279 58.383 44.9725 61.6597 44.6584C64.9365 44.3444 67.6965 44.0872 67.7931 44.0872C67.8899 44.0872 67.9688 43.1561 67.9688 42.0163V39.9456L67.3507 39.8357C67.0107 39.7754 65.6628 39.5911 64.3553 39.4264C63.0478 39.2617 59.7957 38.8336 57.1284 38.4749C52.0743 37.7952 44.8049 36.8255 35.0196 35.5254C28.1936 34.6186 27.7949 34.5598 27.8803 34.4746C27.9558 34.3991 33.3837 33.5488 48.4751 31.2486C54.3327 30.3558 61.0323 29.3275 63.3628 28.9637C65.6935 28.5997 67.6833 28.3021 67.7845 28.3021C67.8859 28.3021 67.9688 28.1309 67.9688 27.9217C67.9688 27.7125 67.9047 27.5522 67.8262 27.5653C67.7476 27.5784 64.2174 28.1313 59.9811 28.7935Z" fill="#8E8EA8"/>
</svg>
