<svg width="258" height="32" viewBox="0 0 258 32" fill="none" xmlns="http://www.w3.org/2000/svg">
<path d="M18.7588 0.501404C30.417 0.501404 36.6104 7.42345 36.6104 15.8028C36.6104 24.1821 30.417 31.1042 18.7588 31.1042C7.10063 31.1042 0.907227 24.1821 0.907227 15.8028C0.907227 7.42345 7.10063 0.501404 18.7588 0.501404ZM9.28652 25.2751C10.3795 26.368 11.8368 26.7324 13.2941 26.7324C16.5729 26.7324 20.5804 24.9108 24.2236 21.2676C29.3241 16.1671 31.1457 9.24505 27.8668 6.3305C26.7739 5.23755 25.3165 4.87322 23.4949 4.87322C20.2161 4.87322 16.2086 6.69482 12.5654 10.338C7.82922 15.4385 6.37197 21.9962 9.28652 25.2751Z" fill="#4281E8"/>
<path d="M83.2451 0.864319L75.2302 30.7385H65.3935L60.2931 12.8868L55.1926 30.7385H46.0846L38.0696 0.864319H45.7203L51.1851 20.9019L57.0142 0.864319H64.3006L70.4939 21.9948L76.3231 0.864319H83.2451Z" fill="#4281E8"/>
<path d="M93.0793 8.51641C95.9939 3.05163 101.094 0.501404 105.831 0.501404C111.295 0.501404 116.031 4.14459 116.031 9.97369V30.7399H108.745V12.5239C108.745 9.24504 105.831 7.05913 102.552 7.05913C98.1798 7.05913 93.0793 10.7023 93.0793 19.446V30.7399H85.793V0.865717H93.0793V8.51641Z" fill="#4281E8"/>
<path d="M189.625 15.8028C189.625 24.1821 183.431 31.1042 171.773 31.1042C160.115 31.1042 153.922 24.1821 153.922 15.8028C153.922 7.42345 160.115 0.501404 171.773 0.501404C183.431 0.501404 189.625 7.42345 189.625 15.8028ZM177.238 10.338C173.959 7.05913 169.587 4.87322 166.308 4.87322C164.487 4.87322 163.03 5.23755 161.937 6.3305C158.658 9.60937 160.479 16.1671 165.58 21.2676C169.223 24.9108 173.23 26.7324 176.509 26.7324C178.331 26.7324 179.788 26.368 180.517 25.2751C184.16 21.9962 182.338 15.4385 177.238 10.338Z" fill="#000034"/>
<path d="M223.144 0.864319V30.7385H215.858V23.0878C212.943 28.5526 207.843 31.1028 203.107 31.1028C197.642 31.1028 192.906 27.8239 192.906 21.6305V0.864319H200.192V19.0803C200.192 22.3591 203.106 24.5451 206.385 24.5451C210.757 24.5451 215.858 20.9019 215.858 12.5225V1.22863H223.144V0.864319Z" fill="#000034"/>
<path d="M257.024 12.5239H249.738C249.738 9.24504 247.188 7.05913 244.273 7.05913C240.266 7.05913 235.894 10.7023 235.894 19.446V30.7399H228.607V0.865717H235.894V8.1521C238.808 2.68731 243.544 0.501404 247.916 0.501404C258.482 0.501404 257.024 12.5239 257.024 12.5239Z" fill="#000034"/>
<path d="M243.179 30.3754C245.594 30.3754 247.551 28.4181 247.551 26.0036C247.551 23.5891 245.594 21.6317 243.179 21.6317C240.765 21.6317 238.808 23.5891 238.808 26.0036C238.808 28.4181 240.765 30.3754 243.179 30.3754Z" fill="#4281E8"/>
<path d="M140.44 0.500732H133.154V30.7392H140.44V0.500732Z" fill="#000034"/>
<path d="M152.074 7.73828V0.451904L121.836 0.451904V7.73828L152.074 7.73828Z" fill="#000034"/>
</svg>
