<svg width="157" height="81" viewBox="0 0 157 81" fill="none" xmlns="http://www.w3.org/2000/svg">
<path d="M7.85678 74.8889C6.92134 74.8889 6.05917 74.7424 5.27025 74.4494C4.4926 74.1451 3.81075 73.7168 3.22469 73.1645C2.64991 72.6123 2.19909 71.9643 1.87226 71.2204C1.55669 70.4766 1.3989 69.6595 1.3989 68.7691C1.3989 67.8788 1.55669 67.0617 1.87226 66.3179C2.19909 65.574 2.65554 64.926 3.2416 64.3737C3.82765 63.8215 4.51514 63.3988 5.30406 63.1058C6.09298 62.8015 6.96079 62.6494 7.90749 62.6494C8.95563 62.6494 9.8967 62.8241 10.7307 63.1734C11.576 63.5228 12.286 64.03 12.8608 64.6949L11.1026 66.3179C10.6743 65.867 10.2066 65.5346 9.69947 65.3204C9.1923 65.095 8.64006 64.9823 8.04274 64.9823C7.46795 64.9823 6.94388 65.0725 6.47053 65.2528C5.99718 65.4331 5.58581 65.6923 5.23644 66.0305C4.89833 66.3686 4.63348 66.7687 4.44188 67.2307C4.26156 67.6928 4.17139 68.2056 4.17139 68.7691C4.17139 69.3214 4.26156 69.8285 4.44188 70.2906C4.63348 70.7527 4.89833 71.1584 5.23644 71.5078C5.58581 71.8459 5.99155 72.1051 6.45363 72.2855C6.92698 72.4658 7.44541 72.556 8.00893 72.556C8.5499 72.556 9.07397 72.4714 9.58113 72.3024C10.0996 72.122 10.6011 71.8234 11.0857 71.4064L12.641 73.3843C11.9986 73.8689 11.2491 74.2409 10.3926 74.5001C9.54732 74.7593 8.70205 74.8889 7.85678 74.8889ZM10.139 73.0293V68.5832H12.641V73.3843L10.139 73.0293ZM21.0033 74.8889C20.0679 74.8889 19.2001 74.7368 18.3999 74.4325C17.6109 74.1282 16.9235 73.6999 16.3374 73.1476C15.7626 72.5954 15.3118 71.9474 14.985 71.2035C14.6694 70.4597 14.5116 69.6482 14.5116 68.7691C14.5116 67.8901 14.6694 67.0786 14.985 66.3348C15.3118 65.5909 15.7682 64.9429 16.3543 64.3906C16.9404 63.8384 17.6278 63.4101 18.4168 63.1058C19.2057 62.8015 20.0622 62.6494 20.9864 62.6494C21.9218 62.6494 22.7784 62.8015 23.556 63.1058C24.3449 63.4101 25.0268 63.8384 25.6016 64.3906C26.1876 64.9429 26.6441 65.5909 26.9709 66.3348C27.2977 67.0673 27.4612 67.8788 27.4612 68.7691C27.4612 69.6482 27.2977 70.4653 26.9709 71.2204C26.6441 71.9643 26.1876 72.6123 25.6016 73.1645C25.0268 73.7055 24.3449 74.1282 23.556 74.4325C22.7784 74.7368 21.9275 74.8889 21.0033 74.8889ZM20.9864 72.556C21.5161 72.556 22.0007 72.4658 22.4403 72.2855C22.8911 72.1051 23.2855 71.8459 23.6236 71.5078C23.9617 71.1697 24.221 70.7696 24.4013 70.3075C24.5929 69.8454 24.6887 69.3327 24.6887 68.7691C24.6887 68.2056 24.5929 67.6928 24.4013 67.2307C24.221 66.7687 23.9617 66.3686 23.6236 66.0305C23.2968 65.6923 22.908 65.4331 22.4572 65.2528C22.0064 65.0725 21.5161 64.9823 20.9864 64.9823C20.4567 64.9823 19.9664 65.0725 19.5156 65.2528C19.0761 65.4331 18.6873 65.6923 18.3491 66.0305C18.011 66.3686 17.7462 66.7687 17.5546 67.2307C17.3743 67.6928 17.2841 68.2056 17.2841 68.7691C17.2841 69.3214 17.3743 69.8342 17.5546 70.3075C17.7462 70.7696 18.0054 71.1697 18.3322 71.5078C18.6703 71.8459 19.0648 72.1051 19.5156 72.2855C19.9664 72.4658 20.4567 72.556 20.9864 72.556ZM29.5898 74.686V62.8522H32.3285V72.4545H38.2623V74.686H29.5898ZM42.3988 68.1774H48.079V70.3752H42.3988V68.1774ZM42.6016 74.686H39.863V62.8522H48.8059V65.0499H42.6016V74.686ZM61.3364 74.8889C60.4009 74.8889 59.5331 74.7368 58.7329 74.4325C57.944 74.1282 57.2565 73.6999 56.6705 73.1476C56.0957 72.5954 55.6449 71.9474 55.318 71.2035C55.0025 70.4597 54.8447 69.6482 54.8447 68.7691C54.8447 67.8901 55.0025 67.0786 55.318 66.3348C55.6449 65.5909 56.1013 64.9429 56.6874 64.3906C57.2734 63.8384 57.9609 63.4101 58.7498 63.1058C59.5388 62.8015 60.3953 62.6494 61.3195 62.6494C62.2549 62.6494 63.1114 62.8015 63.8891 63.1058C64.678 63.4101 65.3599 63.8384 65.9347 64.3906C66.5207 64.9429 66.9772 65.5909 67.304 66.3348C67.6308 67.0673 67.7942 67.8788 67.7942 68.7691C67.7942 69.6482 67.6308 70.4653 67.304 71.2204C66.9772 71.9643 66.5207 72.6123 65.9347 73.1645C65.3599 73.7055 64.678 74.1282 63.8891 74.4325C63.1114 74.7368 62.2605 74.8889 61.3364 74.8889ZM61.3195 72.556C61.8492 72.556 62.3338 72.4658 62.7733 72.2855C63.2241 72.1051 63.6186 71.8459 63.9567 71.5078C64.2948 71.1697 64.554 70.7696 64.7344 70.3075C64.926 69.8454 65.0218 69.3327 65.0218 68.7691C65.0218 68.2056 64.926 67.6928 64.7344 67.2307C64.554 66.7687 64.2948 66.3686 63.9567 66.0305C63.6299 65.6923 63.2411 65.4331 62.7902 65.2528C62.3394 65.0725 61.8492 64.9823 61.3195 64.9823C60.7898 64.9823 60.2995 65.0725 59.8487 65.2528C59.4092 65.4331 59.0203 65.6923 58.6822 66.0305C58.3441 66.3686 58.0793 66.7687 57.8877 67.2307C57.7073 67.6928 57.6172 68.2056 57.6172 68.7691C57.6172 69.3214 57.7073 69.8342 57.8877 70.3075C58.0793 70.7696 58.3385 71.1697 58.6653 71.5078C59.0034 71.8459 59.3979 72.1051 59.8487 72.2855C60.2995 72.4658 60.7898 72.556 61.3195 72.556ZM72.3833 74.686L68.512 62.8522H71.3521L74.7163 73.3336H73.2962L76.8125 62.8522H79.3484L82.7294 73.3336H81.3601L84.8088 62.8522H87.4291L83.5578 74.686H80.6163L77.624 65.4895H78.4017L75.3249 74.686H72.3833ZM89.0285 74.686V62.8522H91.2938L98.2757 71.3726H97.1769V62.8522H99.8818V74.686H97.6333L90.6345 66.1657H91.7333V74.686H89.0285ZM110.061 74.686V65.0838H106.275V62.8522H116.587V65.0838H112.8V74.686H110.061ZM123.714 74.8889C122.778 74.8889 121.91 74.7368 121.11 74.4325C120.321 74.1282 119.634 73.6999 119.048 73.1476C118.473 72.5954 118.022 71.9474 117.695 71.2035C117.38 70.4597 117.222 69.6482 117.222 68.7691C117.222 67.8901 117.38 67.0786 117.695 66.3348C118.022 65.5909 118.479 64.9429 119.065 64.3906C119.651 63.8384 120.338 63.4101 121.127 63.1058C121.916 62.8015 122.773 62.6494 123.697 62.6494C124.632 62.6494 125.489 62.8015 126.266 63.1058C127.055 63.4101 127.737 63.8384 128.312 64.3906C128.898 64.9429 129.354 65.5909 129.681 66.3348C130.008 67.0673 130.172 67.8788 130.172 68.7691C130.172 69.6482 130.008 70.4653 129.681 71.2204C129.354 71.9643 128.898 72.6123 128.312 73.1645C127.737 73.7055 127.055 74.1282 126.266 74.4325C125.489 74.7368 124.638 74.8889 123.714 74.8889ZM123.697 72.556C124.226 72.556 124.711 72.4658 125.151 72.2855C125.601 72.1051 125.996 71.8459 126.334 71.5078C126.672 71.1697 126.931 70.7696 127.112 70.3075C127.303 69.8454 127.399 69.3327 127.399 68.7691C127.399 68.2056 127.303 67.6928 127.112 67.2307C126.931 66.7687 126.672 66.3686 126.334 66.0305C126.007 65.6923 125.618 65.4331 125.168 65.2528C124.717 65.0725 124.226 64.9823 123.697 64.9823C123.167 64.9823 122.677 65.0725 122.226 65.2528C121.786 65.4331 121.398 65.6923 121.059 66.0305C120.721 66.3686 120.457 66.7687 120.265 67.2307C120.085 67.6928 119.994 68.2056 119.994 68.7691C119.994 69.3214 120.085 69.8342 120.265 70.3075C120.457 70.7696 120.716 71.1697 121.043 71.5078C121.381 71.8459 121.775 72.1051 122.226 72.2855C122.677 72.4658 123.167 72.556 123.697 72.556ZM137.558 74.8889C135.878 74.8889 134.566 74.4212 133.619 73.4858C132.672 72.5503 132.199 71.2148 132.199 69.4792V62.8522H134.937V69.3777C134.937 70.5048 135.168 71.3162 135.631 71.8121C136.093 72.308 136.741 72.556 137.575 72.556C138.409 72.556 139.057 72.308 139.519 71.8121C139.981 71.3162 140.212 70.5048 140.212 69.3777V62.8522H142.917V69.4792C142.917 71.2148 142.443 72.5503 141.497 73.4858C140.55 74.4212 139.237 74.8889 137.558 74.8889ZM145.694 74.686V62.8522H150.816C151.875 62.8522 152.788 63.0269 153.555 63.3763C154.321 63.7144 154.913 64.2047 155.33 64.8471C155.747 65.4895 155.955 66.2559 155.955 67.1462C155.955 68.0253 155.747 68.786 155.33 69.4284C154.913 70.0596 154.321 70.5442 153.555 70.8823C152.788 71.2204 151.875 71.3895 150.816 71.3895H147.215L148.432 70.1892V74.686H145.694ZM153.216 74.686L150.258 70.3921H153.183L156.175 74.686H153.216ZM148.432 70.4935L147.215 69.2087H150.664C151.509 69.2087 152.14 69.0284 152.557 68.6677C152.974 68.2958 153.183 67.7886 153.183 67.1462C153.183 66.4925 152.974 65.9854 152.557 65.6247C152.14 65.2641 151.509 65.0838 150.664 65.0838H147.215L148.432 63.782V70.4935Z" fill="#8E8EA8"/>
<path fill-rule="evenodd" clip-rule="evenodd" d="M35.0311 49.9821C40.1025 48.0903 44.445 44.642 47.4368 40.1312L47.4337 40.1292H47.437L47.437 34.6097L47.437 27.9737H40.801H32.7554V34.6097H40.801V36.5821C37.5025 41.1484 32.1331 44.12 26.0696 44.12C16.0396 44.12 7.9088 35.9892 7.9088 25.9593C7.9088 15.9294 16.0396 7.79853 26.0696 7.79853C32.3926 7.79853 37.961 11.03 41.2132 15.9315L47.4368 11.8104C44.064 7.57698 38.1242 2.69158 32.9076 1.24802C27.6909 -0.195551 22.1511 0.0488308 17.0818 1.94616C12.0125 3.84349 7.67369 7.29643 4.68678 11.8104C1.69988 16.3244 0.218126 21.6679 0.45376 27.0755C0.689393 32.4831 2.63032 37.6774 5.99855 41.9145C9.36678 46.1516 13.9895 49.214 19.2046 50.6632C24.4198 52.1124 29.9598 51.874 35.0311 49.9821Z" fill="#4281E8"/>
<path fill-rule="evenodd" clip-rule="evenodd" d="M156.66 0.319336H107.999V7.8594H128.189L128.189 51.5993H136.471L136.471 7.8594H156.66V0.319336Z" fill="#4281E8"/>
<path fill-rule="evenodd" clip-rule="evenodd" d="M107.142 25.9593C107.142 40.1199 95.6622 51.5993 81.5017 51.5993C67.3411 51.5993 55.8617 40.1199 55.8617 25.9593C55.8617 11.7987 67.3411 0.319336 81.5017 0.319336C95.6622 0.319336 107.142 11.7987 107.142 25.9593ZM83.9061 5.90396C82.972 5.78576 82.1442 5.63393 82.0661 5.56668C81.7288 5.27592 84.635 5.48753 85.0949 5.78746C85.4427 6.01402 85.0653 6.05104 83.9061 5.90396ZM73.2833 7.6716C73.1477 7.53574 73.3974 7.13187 73.8386 6.7742C74.3556 6.35505 75.1399 6.13222 76.0465 6.14683L77.4523 6.16959L75.9979 6.62372C75.198 6.87338 74.3155 7.26706 74.0366 7.49837C73.7578 7.73003 73.4188 7.80781 73.2833 7.6716ZM79.9149 7.25856C78.2672 7.47425 77.8053 7.1261 78.8959 6.49091C79.6422 6.05648 80.6979 6.03881 81.3487 6.45049C82.0294 6.88085 81.7964 7.0123 79.9149 7.25856ZM79.0233 7.99667C81.0651 8.20149 81.4428 8.1451 82.2424 7.51603C83.3653 6.63289 83.7607 6.62882 85.4346 7.48275C86.2763 7.91209 87.4366 8.16208 88.5887 8.16208C90.0935 8.16208 90.5503 8.31018 91.2089 9.01126C91.6478 9.4783 92.1987 9.86043 92.4334 9.86043C92.6682 9.86043 92.909 10.2028 92.9684 10.6213C93.0313 11.0615 93.3635 11.4358 93.7565 11.5099C94.4073 11.6325 94.411 11.6101 93.8414 10.9769C93.1033 10.157 93.0809 9.81797 93.7826 10.0873C94.0771 10.2004 94.4582 10.6617 94.6297 11.1124C94.8013 11.5635 95.3892 12.0887 95.9365 12.2792C96.7462 12.5615 96.9748 12.8814 97.163 13.9939C97.2989 14.7996 97.7282 15.6518 98.2075 16.0689C98.8834 16.6562 99.0217 17.0971 99.0237 18.668C99.0251 19.9846 99.2312 20.8701 99.7007 21.579C100.518 22.8134 100.572 24.3806 99.8335 25.4349C99.4011 26.0521 99.3355 26.6649 99.5186 28.3741C99.7767 30.7864 99.3926 31.9389 98.3301 31.9389C97.3274 31.9389 96.4038 33.0598 96.1453 34.59C96.0186 35.3403 95.6168 36.2242 95.2527 36.5536C94.6291 37.1182 94.5217 37.1199 93.3978 36.5839C91.7252 35.786 91.052 35.8696 90.1084 36.9908C88.8527 38.4833 87.8989 38.8933 86.9114 38.3651C86.4627 38.125 86.0096 37.5856 85.9043 37.1664C85.583 35.8859 84.5861 35.2276 83.3249 35.4636C79.1201 36.2507 78.7084 36.072 78.2703 33.2718C77.9275 31.0823 77.256 30.4155 75.0624 30.0867C73.0193 29.7803 72.0553 28.8398 72.3142 27.405C72.948 23.8928 72.9477 23.867 72.2741 23.2257C71.9113 22.8806 71.1321 22.3375 70.5425 22.0196C69.0649 21.222 69.0564 19.7448 70.5221 18.4398C72.1144 17.022 72.2452 16.5818 71.4929 15.1776C70.2891 12.9321 70.6549 12.1698 73.2106 11.5958C74.7605 11.2473 75.5842 10.5133 75.5842 9.48C75.5842 8.16684 76.5539 7.74837 79.0233 7.99667ZM87.8122 7.59993C87.1584 7.48411 86.3941 7.2623 86.1139 7.10673C85.7522 6.90599 85.9053 6.82107 86.6434 6.8136C87.2148 6.80816 87.979 7.02997 88.3418 7.3068C88.9539 7.77418 88.9158 7.79524 87.8122 7.59993ZM90.9464 7.7983C90.3435 7.58838 89.8503 7.3445 89.8503 7.25687C89.8503 7.02216 91.3237 7.50788 91.7106 7.86997C91.8934 8.04082 91.5493 8.00855 90.9464 7.7983ZM84.9244 8.7188C84.2562 8.97525 82.7172 8.58226 82.7172 8.15563C82.7172 7.97221 83.3286 7.82242 84.0759 7.82242C85.4203 7.82242 85.9104 8.34041 84.9244 8.7188ZM76.6049 9.94535C76.6059 9.8054 77.1789 9.45181 77.8786 9.15969C79.1602 8.62471 79.5457 8.78368 79.1935 9.7018C78.9975 10.2123 76.6015 10.4375 76.6049 9.94535ZM90.4834 9.54929C90.0004 9.84786 88.7457 9.43415 88.5741 8.91955C88.4875 8.65936 88.8051 8.66174 89.6692 8.92668C90.4185 9.15664 90.7317 9.3961 90.4834 9.54929ZM93.2948 9.52076C92.7154 9.52076 91.8883 9.11859 91.8883 8.83701C91.8883 8.49564 93.1929 8.81901 93.4423 9.22219C93.5435 9.38625 93.4772 9.52076 93.2948 9.52076ZM72.0343 11.0493C71.4107 11.0493 71.4191 9.74664 72.0455 9.28843C72.3818 9.04251 73.1977 8.84142 73.8583 8.84142H75.0597L73.7204 9.94535C72.9837 10.5523 72.2248 11.0493 72.0343 11.0493ZM80.849 10.5092L81.5559 9.94535C82.6595 9.46234 83.2512 9.61111 82.901 10.1773C82.778 10.3767 82.2658 10.533 81.7631 10.5245L80.849 10.5092ZM87.564 10.0833C87.334 10.1763 86.8754 10.1821 86.5449 10.0958C86.2144 10.0095 86.351 9.55609 86.9114 9.54929C87.4719 9.5425 87.7939 9.99018 87.564 10.0833ZM67.1495 12.9426C67.0826 12.4874 67.3503 11.8376 67.803 11.3557C68.2246 10.9069 68.854 10.5398 69.2018 10.5398C69.7779 10.5398 69.7572 10.6532 68.9729 11.8074C68.499 12.5048 68.1115 13.2816 68.1115 13.5339C68.1115 14.2914 67.2711 13.7748 67.1495 12.9426ZM91.4837 11.5537C91.1678 11.5564 90.8149 11.4059 90.6994 11.2191C90.4338 10.7891 90.8835 10.7891 91.5486 11.2191C91.9878 11.5027 91.9786 11.5489 91.4837 11.5537ZM96.2167 11.7595C96.1311 11.8448 95.8678 11.6817 95.6314 11.3971C95.3634 11.0744 95.3376 10.8794 95.5632 10.8794C95.9735 10.8794 96.4521 11.5238 96.2167 11.7595ZM77.0971 13.2571C76.7788 13.2571 76.791 12.9246 77.3009 12.3916C78.0858 11.5713 78.6412 11.6203 78.6412 12.3916C78.6412 12.8573 77.9279 13.2571 77.0971 13.2571ZM72.5271 14.7972C72.5271 14.7102 72.7846 14.0988 73.0995 13.4385C73.7506 12.0734 74.4093 11.8913 74.7554 12.9813C74.9283 13.5258 74.788 13.8889 74.2309 14.34C73.5332 14.9049 72.5271 15.1749 72.5271 14.7972ZM94.4667 13.5095C94.231 13.7449 93.5866 13.2663 93.5866 12.856C93.5866 12.6304 93.7816 12.6562 94.1043 12.9242C94.3889 13.1607 94.552 13.4239 94.4667 13.5095ZM96.7751 14.3379C96.5135 14.7615 95.6246 13.985 95.6246 13.3329C95.6246 12.8944 95.7306 12.9083 96.2958 13.4198C96.665 13.7537 96.8807 14.1671 96.7751 14.3379ZM98.2584 15.1525C98.1783 15.2323 97.9381 14.9154 97.7251 14.4473C97.5118 13.9796 97.4769 13.5968 97.647 13.5968C97.9813 13.5968 98.4982 14.9123 98.2584 15.1525ZM64.3751 18.1823C63.8472 17.8562 63.975 15.8722 64.5796 15.0091C65.2266 14.0852 65.6071 14.2625 65.0819 15.2438C64.8798 15.6212 64.7148 16.484 64.7148 17.1609C64.7148 17.8953 64.5775 18.3077 64.3751 18.1823ZM68.8173 18.1908C67.8479 17.8831 67.5639 16.5125 68.2517 15.4626C68.5568 14.9969 69.1138 14.6158 69.4895 14.6158C70.1162 14.6158 70.1539 14.7635 69.9453 16.3991C69.7772 17.7171 69.7253 18.1977 69.4974 18.3052C69.3583 18.3708 69.1537 18.2975 68.8173 18.1908ZM99.361 16.3141C99.1799 16.0339 99.0319 15.6518 99.0319 15.465C99.0319 15.2781 99.1799 15.3546 99.361 15.6348C99.542 15.915 99.6901 16.2972 99.6901 16.484C99.6901 16.6708 99.542 16.5944 99.361 16.3141ZM96.304 16.8236C96.1172 16.7082 95.9667 16.3552 95.9694 16.0393C95.9742 15.5444 96.0203 15.5353 96.304 15.9745C96.734 16.6395 96.734 17.0893 96.304 16.8236ZM75.0685 17.7971C75.2153 17.4486 75.1983 16.9071 75.184 16.5681C75.1484 15.721 76.0682 16.0261 76.1993 16.9123C76.2672 17.3729 76.0376 17.77 75.5533 18.0291C74.8817 18.3885 74.8301 18.3637 75.0685 17.7971ZM98.4011 18.6918C98.0302 18.6918 97.6627 17.8834 97.6627 17.0675C97.6627 16.3624 98.1871 16.9031 98.4965 17.9276C98.6242 18.3498 98.5815 18.6918 98.4011 18.6918ZM73.357 20.9938C72.4704 22.26 71.6229 21.9312 71.4929 20.0505C71.3617 18.1626 72.0553 17.8804 73.2065 19.0315C74.0244 19.8494 74.0377 20.0223 73.357 20.9938ZM99.8528 20.0505C99.5879 19.2098 99.3691 18.4649 99.3661 18.3956C99.3634 18.326 99.5903 18.4591 99.8705 18.6918C100.162 18.934 100.37 19.6415 100.357 20.3467L100.334 21.579L99.8528 20.0505ZM66.9196 23.1075C65.64 23.1075 64.9376 20.8586 65.7457 19.3487C66.2929 18.3263 66.999 18.5267 66.8329 19.6575C66.7552 20.1884 66.8458 21.1819 67.0344 21.8653C67.3064 22.8504 67.2827 23.1075 66.9196 23.1075ZM97.6137 21.2091C97.4537 21.1103 97.323 20.7329 97.323 20.3701C97.323 19.4496 97.7734 19.5578 97.965 20.5602C98.0533 21.0215 97.7734 21.3079 97.6137 21.2091ZM75.8387 22.8953C75.6519 22.7798 75.5842 22.2444 75.5842 22.0685C75.5842 21.5134 76.5651 21.7227 76.9004 22.3487C77.1188 22.757 77.0723 23.2186 76.7547 23.7923C76.3138 24.5888 76.3133 24.5144 76.3112 24.1674C76.3091 23.8156 76.3052 23.1837 75.8387 22.8953ZM101.616 25.457C101.549 25.3792 101.4 24.4747 101.286 23.4472C101.146 22.1992 101.185 21.7482 101.402 22.0885C101.698 22.5508 101.904 25.7895 101.616 25.457ZM99.2914 24.8059C98.9245 24.8059 98.5713 23.2057 98.8043 22.5987C99.1198 21.7767 99.2812 21.9992 99.4191 23.4472C99.4904 24.1945 99.433 24.8059 99.2914 24.8059ZM69.0289 25.7617C68.4321 24.9587 68.4025 24.7243 68.782 23.8086C69.3777 22.3698 69.9942 22.507 70.591 24.2114C70.8692 25.0056 71.2103 25.9346 71.3492 26.2766C71.7605 27.2895 69.8492 26.8653 69.0289 25.7617ZM66.462 28.5684C64.9994 27.7854 64.3615 26.0884 64.9624 24.579C65.1448 24.1204 65.263 24.3375 65.4104 25.4033C65.5205 26.1988 65.958 27.3201 66.3829 27.8945C67.1121 28.8809 67.1166 28.9186 66.462 28.5684ZM97.1858 26.2331C97.0265 25.7522 97.0869 25.26 97.3434 24.9512C97.9171 24.26 97.9918 24.4455 97.6973 25.8272C97.4643 26.9203 97.4242 26.9522 97.1858 26.2331ZM74.664 27.5782C74.0825 26.6428 73.6786 25.8058 73.7659 25.7182C74.0288 25.4553 75.3732 25.885 76.0088 26.4349C76.7142 27.0453 76.7693 27.8459 76.1623 28.6757C75.7611 29.2243 75.6259 29.1251 74.664 27.5782ZM100.697 28.726C100.144 29.068 100.087 28.8455 100.285 27.1054C100.385 26.2216 100.6 25.5813 100.763 25.6819C101.185 25.9427 101.131 28.458 100.697 28.726ZM80.1751 28.8992C80.0596 28.5351 79.6649 28.1421 79.2981 28.0256C78.228 27.6857 79.2952 27.0338 80.2638 27.7124C80.6792 28.0032 81.0189 28.5381 81.0189 28.9013C81.0189 29.7562 80.4469 29.7548 80.1751 28.8992ZM70.2072 32.1386C69.0826 31.5571 68.285 29.9403 68.6131 28.907C68.9277 27.9152 69.3163 28.0303 69.8285 29.2667C70.071 29.852 70.6284 30.7575 71.0672 31.2793C72.0255 32.4178 71.5897 32.8536 70.2072 32.1386ZM97.5047 30.5269C97.3705 30.0218 97.4327 29.3116 97.6457 28.9135C97.8549 28.5225 98.2503 28.2025 98.5237 28.2025C99.1395 28.2025 99.1242 28.3724 98.3573 30.0707C97.7462 31.424 97.7428 31.4257 97.5047 30.5269ZM95.392 30.4831C94.6002 31.2406 94.3587 30.9393 94.8118 29.7589C95.0238 29.2059 95.8254 29.0232 96.0509 29.4763C96.1209 29.6163 95.824 30.0694 95.392 30.4831ZM100.134 33.0805C100.404 32.5459 100.752 31.6502 100.908 31.0897L101.191 30.0707L101.317 30.9977C101.46 32.0507 100.774 33.6838 100.097 33.9046C99.7336 34.0231 99.7407 33.8608 100.134 33.0805ZM76.8501 34.4973C75.001 34.9616 73.2605 33.4627 73.6851 31.7715C73.8026 31.303 74.0163 30.9199 74.1599 30.9199C74.3033 30.9199 75.165 31.6753 76.0743 32.5985L77.7278 34.2772L76.8501 34.4973ZM84.7204 32.2786C84.3685 32.2786 84.1326 31.7823 84.2576 31.5799C84.651 30.9437 86.191 31.3768 86.4967 32.2093C86.7712 32.9572 86.7521 32.9678 86.0331 32.464C85.7004 32.2312 85.2738 32.2533 84.941 32.2706C84.8612 32.2747 84.7868 32.2786 84.7204 32.2786ZM78.9809 32.3866C78.9809 32.3153 79.3246 32.1166 79.7451 31.9454C80.1656 31.7742 80.7223 31.6645 80.9829 31.7015C81.6921 31.8027 82.8395 33.5075 82.6068 34.1142C82.436 34.5595 82.1292 34.4739 80.6921 33.5805C79.7509 32.9953 78.9809 32.4583 78.9809 32.3866ZM90.2579 33.0258C89.8081 33.4756 89.7422 33.2952 90.0564 32.4763C90.2837 31.8835 91.7259 31.7412 92.0581 32.2786C92.1753 32.4685 91.9144 32.6182 91.4667 32.6182C91.0262 32.6182 90.4821 32.8017 90.2579 33.0258ZM97.3141 34.4942C97.683 34.1603 98.0764 33.5995 98.1878 33.248C98.5125 32.2249 99.1113 32.9331 98.8838 34.0707C98.6229 35.374 98.0947 36.0149 97.2815 36.0149C96.4504 36.0149 96.4667 35.2612 97.3141 34.4942ZM93.0992 35.3356C92.8054 35.3356 93.2072 33.9606 93.6698 33.3825C94.1314 32.8054 95.1695 32.8458 95.4011 33.4504C95.5696 33.8893 93.8037 35.3356 93.0992 35.3356ZM73.9867 37.6793C72.3159 37.7551 70.4871 36.0574 70.4905 34.4341C70.4912 33.9993 70.7137 34.1716 71.216 34.9959C71.9847 36.2571 72.9239 37.0625 74.0489 37.4246C74.7027 37.6352 74.6997 37.647 73.9867 37.6793ZM86.1706 35.8274C86.1081 35.7748 86.3758 35.4134 86.765 35.0241C87.1543 34.6352 87.6726 34.3166 87.9172 34.3166C88.5239 34.3166 89.371 35.0374 89.6264 35.7711C89.8173 36.3186 89.6682 36.3546 88.0605 36.1494C87.0833 36.0248 86.2328 35.8801 86.1706 35.8274ZM77.3603 39.2819C76.3168 38.7425 75.9238 38.126 75.9238 37.0292C75.9238 36.4878 76.164 36.5621 77.6562 37.5665C78.6093 38.2075 79.5264 38.7323 79.6942 38.7323C79.8623 38.7323 79.9999 38.8821 79.9999 39.0655C79.9999 39.683 78.3909 39.8148 77.3603 39.2819ZM84.924 39.073C83.6398 40.1385 81.3585 39.004 81.3585 37.2996C81.3585 36.788 81.5046 36.681 81.953 36.8638C82.2797 36.9969 83.1972 37.3332 83.991 37.6114C85.5497 38.1572 85.7151 38.4164 84.924 39.073ZM90.7844 38.1997C91.2979 38.0862 91.8713 37.9426 92.0581 37.8801C92.9559 37.5808 93.2881 37.7561 93.1858 38.4745C93.0401 39.4942 91.4684 40.2537 90.5361 39.7547C89.5612 39.233 89.6876 38.4415 90.7844 38.1997ZM95.285 39.0312C96.0322 38.611 96.6436 38.143 96.6436 37.9904C96.6436 37.8379 96.7965 37.7133 96.9833 37.7133C97.4222 37.7133 97.4113 37.9313 96.9279 38.8396C96.3885 39.8522 95.6032 40.4069 94.6905 40.4198C93.534 40.4361 93.7711 39.8821 95.285 39.0312ZM89.1156 41.5509C88.3666 42.9551 85.4515 42.8783 85.1751 41.4469C85.0966 41.04 85.5076 40.9401 87.2593 40.9401C89.2538 40.9401 89.4134 40.9924 89.1156 41.5509ZM80.4153 42.6191C79.9999 42.3284 79.6602 41.8589 79.6602 41.576C79.6602 41.1202 79.7179 41.1191 80.1666 41.5678C80.8134 42.2146 82.9366 42.9228 83.3898 42.6426C83.5803 42.525 83.7362 42.5906 83.7362 42.7883C83.7362 43.3406 81.2655 43.2149 80.4153 42.6191ZM90.3598 43.1344C90.9202 43.1157 91.6845 42.969 92.0581 42.8083C93.1355 42.3453 93.4779 42.4438 92.7374 43.0036C91.7646 43.739 90.6753 43.9448 89.9596 43.5288C89.4213 43.2156 89.4732 43.1643 90.3598 43.1344Z" fill="#4281E8"/>
</svg>
