<svg width="21" height="21" viewBox="0 0 21 21" fill="none" xmlns="http://www.w3.org/2000/svg">
<g clip-path="url(#clip0_14_437)">
<path d="M18.8279 16.3922C18.5254 17.091 18.1674 17.7342 17.7526 18.3255C17.1872 19.1317 16.7243 19.6897 16.3675 19.9995C15.8144 20.5082 15.2218 20.7686 14.5873 20.7835C14.1317 20.7835 13.5824 20.6538 12.9429 20.3909C12.3013 20.1292 11.7117 19.9995 11.1726 19.9995C10.6072 19.9995 10.0008 20.1292 9.35215 20.3909C8.70254 20.6538 8.17922 20.7909 7.77911 20.8044C7.17061 20.8304 6.56409 20.5625 5.95868 19.9995C5.57227 19.6625 5.08895 19.0847 4.50996 18.2662C3.88874 17.3922 3.37802 16.3786 2.97791 15.2231C2.5494 13.975 2.33459 12.7664 2.33459 11.5963C2.33459 10.256 2.62422 9.09998 3.20432 8.13124C3.66023 7.35312 4.26676 6.73931 5.02587 6.28871C5.78498 5.8381 6.6052 5.60848 7.4885 5.59379C7.97182 5.59379 8.60563 5.74329 9.39326 6.03711C10.1787 6.33191 10.683 6.48142 10.9041 6.48142C11.0694 6.48142 11.6296 6.30661 12.5793 5.9581C13.4774 5.6349 14.2354 5.50108 14.8564 5.55379C16.5391 5.68959 17.8032 6.3529 18.644 7.54793C17.1391 8.45975 16.3946 9.73687 16.4095 11.3752C16.423 12.6514 16.886 13.7133 17.7958 14.5565C18.2082 14.9478 18.6686 15.2503 19.181 15.4651C19.0699 15.7873 18.9526 16.0959 18.8279 16.3922ZM14.9688 1.20627C14.9688 2.20649 14.6033 3.14041 13.875 4.00482C12.996 5.03245 11.9328 5.62626 10.7799 5.53256C10.7652 5.41256 10.7567 5.28627 10.7567 5.15355C10.7567 4.19334 11.1747 3.16571 11.917 2.32549C12.2876 1.90007 12.759 1.54634 13.3305 1.26417C13.9009 0.986198 14.4404 0.832477 14.9478 0.806152C14.9626 0.939867 14.9688 1.07359 14.9688 1.20625V1.20627Z" fill="white"/>
</g>
<defs>
<clipPath id="clip0_14_437">
<rect width="20" height="20" fill="white" transform="translate(0.667969 0.806152)"/>
</clipPath>
</defs>
</svg>
