<svg width="21" height="21" viewBox="0 0 21 21" fill="none" xmlns="http://www.w3.org/2000/svg">
<g clip-path="url(#clip0_14_436)">
<path d="M10.5448 8.98779V12.8605H15.9266C15.6903 14.106 14.9811 15.1606 13.9175 15.8696L17.1629 18.3878C19.0538 16.6424 20.1447 14.0788 20.1447 11.0333C20.1447 10.3243 20.0811 9.64239 19.9629 8.9879L10.5448 8.98779Z" fill="white"/>
<path d="M4.94047 12.7095L4.20851 13.2698L1.61755 15.2879C3.263 18.5515 6.63548 20.8061 10.5445 20.8061C13.2445 20.8061 15.5081 19.9152 17.1627 18.388L13.9172 15.8698C13.0263 16.4698 11.8899 16.8334 10.5445 16.8334C7.94456 16.8334 5.73553 15.0789 4.94456 12.7152L4.94047 12.7095Z" fill="white"/>
<path d="M1.61757 6.32422C0.93579 7.66962 0.544922 9.18782 0.544922 10.806C0.544922 12.4241 0.93579 13.9423 1.61757 15.2877C1.61757 15.2968 4.9449 12.7059 4.9449 12.7059C4.7449 12.1059 4.62669 11.4696 4.62669 10.8059C4.62669 10.1421 4.7449 9.50582 4.9449 8.90583L1.61757 6.32422Z" fill="white"/>
<path d="M10.5447 4.78797C12.0175 4.78797 13.3266 5.29705 14.372 6.27888L17.2356 3.41528C15.4993 1.79712 13.2448 0.806152 10.5447 0.806152C6.63569 0.806152 3.263 3.0516 1.61755 6.32434L4.94478 8.90616C5.73564 6.5425 7.94476 4.78797 10.5447 4.78797Z" fill="white"/>
</g>
<defs>
<clipPath id="clip0_14_436">
<rect width="20" height="20" fill="white" transform="translate(0.544922 0.806152)"/>
</clipPath>
</defs>
</svg>
