<svg width="23" height="20" viewBox="0 0 23 20" fill="none" xmlns="http://www.w3.org/2000/svg">
<path d="M16.4132 3.26425C15.2308 2.5816 13.8895 2.22222 12.5243 2.22222C11.159 2.22222 9.81775 2.5816 8.63537 3.26425L7.52426 1.33975C9.04445 0.462062 10.7689 0 12.5243 0C14.2796 0 16.0041 0.462063 17.5243 1.33975C19.0445 2.21743 20.3068 3.47981 21.1845 5C22.0622 6.52019 22.5243 8.24463 22.5243 10C22.5243 11.7554 22.0622 13.4798 21.1845 15C20.3068 16.5202 19.0445 17.7826 17.5243 18.6603C16.0041 19.5379 14.2796 20 12.5243 20C10.7689 20 9.04445 19.5379 7.52426 18.6603L8.63537 16.7358C9.81775 17.4184 11.159 17.7778 12.5243 17.7778C13.8895 17.7778 15.2308 17.4184 16.4132 16.7358C17.5955 16.0531 18.5774 15.0713 19.26 13.8889C19.9427 12.7065 20.302 11.3653 20.302 10C20.302 8.63472 19.9427 7.29348 19.26 6.11111C18.5774 4.92874 17.5955 3.94689 16.4132 3.26425Z" fill="#33363F"/>
<path d="M4.98996 3.75034L-0.00976562 10L4.98996 16.2497L6.72523 14.8615L3.72496 11.1111H11.4132C12.0268 11.1111 12.5243 10.6136 12.5243 10C12.5243 9.38635 12.0268 8.88889 11.4132 8.88889H3.72496L6.72523 5.13855L4.98996 3.75034Z" fill="#33363F"/>
</svg>
