<svg width="27" height="26" viewBox="0 0 27 26" fill="none" xmlns="http://www.w3.org/2000/svg">
<ellipse cx="13.7578" cy="16.2095" rx="2.13818" ry="2.13818" fill="#222222"/>
<path d="M5.73962 14.3296C5.73962 12.444 5.73962 11.5012 6.32541 10.9154C6.9112 10.3296 7.85401 10.3296 9.73962 10.3296H17.7759C19.6616 10.3296 20.6044 10.3296 21.1902 10.9154C21.7759 11.5012 21.7759 12.444 21.7759 14.3296V16.0896C21.7759 18.918 21.7759 20.3322 20.8973 21.2109C20.0186 22.0896 18.6044 22.0896 15.7759 22.0896H11.7396C8.9112 22.0896 7.49698 22.0896 6.6183 21.2109C5.73962 20.3322 5.73962 18.918 5.73962 16.0896V14.3296Z" stroke="#000034" stroke-width="2" stroke-linejoin="bevel"/>
<path d="M18.5687 10.3296V8.72594C18.5687 6.06895 16.4148 3.91504 13.7578 3.91504V3.91504C11.1008 3.91504 8.9469 6.06895 8.9469 8.72594V10.3296" stroke="#000034" stroke-width="2" stroke-linecap="round" stroke-linejoin="bevel"/>
</svg>
